<mxfile host="app.diagrams.net" modified="2020-10-09T06:55:12.085Z" agent="5.0 (Macintosh; Intel Mac OS X 10_15_5) AppleWebKit/537.36 (KHTML, like Gecko) Chrome/85.0.4183.121 Safari/537.36" etag="P19WBzX7_Cyt3FU2dFu1" version="13.6.6" type="github">
  <diagram id="wzoMRLahbeTp7lo2NTmh" name="Page-1">
    <mxGraphModel dx="1258" dy="843" grid="1" gridSize="10" guides="1" tooltips="1" connect="1" arrows="1" fold="1" page="1" pageScale="1" pageWidth="827" pageHeight="1169" math="0" shadow="0">
      <root>
        <mxCell id="0" />
        <mxCell id="1" parent="0" />
        <mxCell id="BhX4mByZeFVy_M81ZKAH-2" value="&lt;b&gt;&lt;font style=&quot;font-size: 18px&quot; color=&quot;#3399ff&quot;&gt;data source&lt;/font&gt;&lt;/b&gt;" style="text;html=1;strokeColor=none;fillColor=none;align=center;verticalAlign=middle;whiteSpace=wrap;rounded=0;" vertex="1" parent="1">
          <mxGeometry x="60" y="487.5" width="90" height="35" as="geometry" />
        </mxCell>
        <mxCell id="BhX4mByZeFVy_M81ZKAH-9" value="&lt;b&gt;.....&lt;/b&gt;" style="text;html=1;strokeColor=none;fillColor=none;align=center;verticalAlign=middle;whiteSpace=wrap;rounded=0;" vertex="1" parent="1">
          <mxGeometry x="600" y="487.5" width="50" height="32.5" as="geometry" />
        </mxCell>
        <mxCell id="BhX4mByZeFVy_M81ZKAH-11" value="&lt;b&gt;&lt;font style=&quot;font-size: 18px&quot; color=&quot;#ff6666&quot;&gt;data model&lt;/font&gt;&lt;/b&gt;" style="text;html=1;strokeColor=none;fillColor=none;align=center;verticalAlign=middle;whiteSpace=wrap;rounded=0;" vertex="1" parent="1">
          <mxGeometry x="60" y="365" width="90" height="35" as="geometry" />
        </mxCell>
        <mxCell id="BhX4mByZeFVy_M81ZKAH-22" value="" style="group" vertex="1" connectable="0" parent="1">
          <mxGeometry x="570" y="140" width="89" height="40" as="geometry" />
        </mxCell>
        <mxCell id="BhX4mByZeFVy_M81ZKAH-17" value="" style="rounded=1;whiteSpace=wrap;html=1;" vertex="1" parent="BhX4mByZeFVy_M81ZKAH-22">
          <mxGeometry y="5" width="30" height="10" as="geometry" />
        </mxCell>
        <mxCell id="BhX4mByZeFVy_M81ZKAH-19" value="" style="rounded=1;whiteSpace=wrap;html=1;dashed=1;strokeColor=#FF3333;" vertex="1" parent="BhX4mByZeFVy_M81ZKAH-22">
          <mxGeometry y="25" width="30" height="10" as="geometry" />
        </mxCell>
        <mxCell id="BhX4mByZeFVy_M81ZKAH-20" value="已上线" style="text;html=1;strokeColor=none;fillColor=none;align=center;verticalAlign=middle;whiteSpace=wrap;rounded=0;dashed=1;" vertex="1" parent="BhX4mByZeFVy_M81ZKAH-22">
          <mxGeometry x="49" width="40" height="20" as="geometry" />
        </mxCell>
        <mxCell id="BhX4mByZeFVy_M81ZKAH-21" value="规划中" style="text;html=1;strokeColor=none;fillColor=none;align=center;verticalAlign=middle;whiteSpace=wrap;rounded=0;dashed=1;" vertex="1" parent="BhX4mByZeFVy_M81ZKAH-22">
          <mxGeometry x="49" y="20" width="40" height="20" as="geometry" />
        </mxCell>
        <mxCell id="BhX4mByZeFVy_M81ZKAH-25" value="velocity 时序查询：&amp;nbsp;&lt;span style=&quot;font-family: &amp;#34;arial&amp;#34; ; font-size: 13.3333px ; text-align: left ; background-color: rgb(255 , 255 , 255)&quot;&gt;计算该账号过去1分钟在评论回复事件下使用的ip的数量&lt;/span&gt;" style="text;html=1;strokeColor=none;fillColor=none;align=center;verticalAlign=middle;whiteSpace=wrap;rounded=0;dashed=1;" vertex="1" parent="1">
          <mxGeometry x="790" y="210" width="350" height="40" as="geometry" />
        </mxCell>
        <mxCell id="BhX4mByZeFVy_M81ZKAH-26" value="" style="rounded=0;whiteSpace=wrap;html=1;" vertex="1" parent="1">
          <mxGeometry x="170" y="200" width="490" height="105" as="geometry" />
        </mxCell>
        <mxCell id="BhX4mByZeFVy_M81ZKAH-27" value="" style="group" vertex="1" connectable="0" parent="1">
          <mxGeometry x="170" y="340" width="489" height="85" as="geometry" />
        </mxCell>
        <mxCell id="BhX4mByZeFVy_M81ZKAH-10" value="" style="rounded=0;whiteSpace=wrap;html=1;" vertex="1" parent="BhX4mByZeFVy_M81ZKAH-27">
          <mxGeometry width="489" height="85" as="geometry" />
        </mxCell>
        <mxCell id="BhX4mByZeFVy_M81ZKAH-13" value="WideTable" style="rounded=1;whiteSpace=wrap;html=1;dashed=1;strokeColor=#FF3333;" vertex="1" parent="BhX4mByZeFVy_M81ZKAH-27">
          <mxGeometry x="190.61020408163265" y="19.42857142857143" width="99.79591836734694" height="46.14285714285714" as="geometry" />
        </mxCell>
        <mxCell id="BhX4mByZeFVy_M81ZKAH-14" value="Velocity" style="rounded=1;whiteSpace=wrap;html=1;" vertex="1" parent="BhX4mByZeFVy_M81ZKAH-27">
          <mxGeometry x="20.957142857142856" y="21.452380952380953" width="99.79591836734694" height="46.14285714285714" as="geometry" />
        </mxCell>
        <mxCell id="BhX4mByZeFVy_M81ZKAH-15" value="Graph" style="rounded=1;whiteSpace=wrap;html=1;dashed=1;strokeColor=#FF3333;" vertex="1" parent="BhX4mByZeFVy_M81ZKAH-27">
          <mxGeometry x="350.28367346938774" y="19.42857142857143" width="99.79591836734694" height="46.14285714285714" as="geometry" />
        </mxCell>
        <mxCell id="BhX4mByZeFVy_M81ZKAH-29" value="" style="group" vertex="1" connectable="0" parent="1">
          <mxGeometry x="170" y="452.5" width="490" height="105" as="geometry" />
        </mxCell>
        <mxCell id="BhX4mByZeFVy_M81ZKAH-1" value="" style="rounded=0;whiteSpace=wrap;html=1;" vertex="1" parent="BhX4mByZeFVy_M81ZKAH-29">
          <mxGeometry width="490" height="105" as="geometry" />
        </mxCell>
        <mxCell id="BhX4mByZeFVy_M81ZKAH-28" value="" style="group" vertex="1" connectable="0" parent="BhX4mByZeFVy_M81ZKAH-29">
          <mxGeometry x="40" y="17.5" width="400" height="70" as="geometry" />
        </mxCell>
        <mxCell id="BhX4mByZeFVy_M81ZKAH-4" value="&lt;br&gt;redis" style="shape=cylinder2;whiteSpace=wrap;html=1;boundedLbl=1;backgroundOutline=1;size=15;" vertex="1" parent="BhX4mByZeFVy_M81ZKAH-28">
          <mxGeometry width="80" height="70" as="geometry" />
        </mxCell>
        <mxCell id="BhX4mByZeFVy_M81ZKAH-5" value="&lt;br&gt;kafka" style="shape=cylinder2;whiteSpace=wrap;html=1;boundedLbl=1;backgroundOutline=1;size=15;" vertex="1" parent="BhX4mByZeFVy_M81ZKAH-28">
          <mxGeometry x="110" width="80" height="70" as="geometry" />
        </mxCell>
        <mxCell id="BhX4mByZeFVy_M81ZKAH-7" value="&lt;br&gt;hbase" style="shape=cylinder2;whiteSpace=wrap;html=1;boundedLbl=1;backgroundOutline=1;size=15;strokeColor=#FF3333;dashed=1;" vertex="1" parent="BhX4mByZeFVy_M81ZKAH-28">
          <mxGeometry x="220" width="80" height="70" as="geometry" />
        </mxCell>
        <mxCell id="BhX4mByZeFVy_M81ZKAH-23" value="&lt;br&gt;GDB" style="shape=cylinder2;whiteSpace=wrap;html=1;boundedLbl=1;backgroundOutline=1;size=15;dashed=1;strokeColor=#FF3333;" vertex="1" parent="BhX4mByZeFVy_M81ZKAH-28">
          <mxGeometry x="320" width="80" height="70" as="geometry" />
        </mxCell>
        <mxCell id="BhX4mByZeFVy_M81ZKAH-30" value="&lt;span style=&quot;font-size: 18px&quot;&gt;&lt;b&gt;&lt;font color=&quot;#ff9933&quot;&gt;feature&lt;/font&gt;&lt;/b&gt;&lt;/span&gt;" style="text;html=1;strokeColor=none;fillColor=none;align=center;verticalAlign=middle;whiteSpace=wrap;rounded=0;" vertex="1" parent="1">
          <mxGeometry x="60" y="235" width="90" height="35" as="geometry" />
        </mxCell>
        <mxCell id="BhX4mByZeFVy_M81ZKAH-32" value="配置化" style="rounded=1;whiteSpace=wrap;html=1;" vertex="1" parent="1">
          <mxGeometry x="369.9971428571429" y="229.43238095238095" width="99.79591836734694" height="46.14285714285714" as="geometry" />
        </mxCell>
        <mxCell id="BhX4mByZeFVy_M81ZKAH-33" value="SQL化" style="rounded=1;whiteSpace=wrap;html=1;" vertex="1" parent="1">
          <mxGeometry x="209.99714285714288" y="229.43238095238095" width="99.79591836734694" height="46.14285714285714" as="geometry" />
        </mxCell>
        <mxCell id="BhX4mByZeFVy_M81ZKAH-34" value="统一优化器" style="rounded=1;whiteSpace=wrap;html=1;dashed=1;strokeColor=#FF3333;" vertex="1" parent="1">
          <mxGeometry x="529.9971428571429" y="229.43238095238095" width="99.79591836734694" height="46.14285714285714" as="geometry" />
        </mxCell>
      </root>
    </mxGraphModel>
  </diagram>
</mxfile>
